<?xml version="1.0" standalone="no"?><!-- Generator: Gravit.io --><svg xmlns="http://www.w3.org/2000/svg" xmlns:xlink="http://www.w3.org/1999/xlink" style="isolation:isolate" viewBox="0 0 1280 800" width="1280" height="800"><defs><clipPath id="_clipPath_Hvu314xSI3tXX5584J2Pi1tfODdTgydb"><rect width="1280" height="800"/></clipPath></defs><g clip-path="url(#_clipPath_Hvu314xSI3tXX5584J2Pi1tfODdTgydb)"><rect width="1280" height="800" style="fill:rgb(0,0,0)" fill-opacity="0"/><g><g><g><g><g><path d=" M 301.967 329.411 C 300.101 328.991 299.541 326.26 299.636 324.051 C 299.744 321.491 300.689 319.899 302.241 319.676 C 303.636 319.492 304.974 319.553 306.243 319.761 C 305.949 318.395 305.566 317.156 305.068 316.192 C 303.379 312.912 300.426 313.257 297.125 309.442 C 289.31 300.398 277.78 286.288 269.409 286.497 C 257.52 286.788 217.362 304.651 215.33 305.406 C 213.301 306.162 205.854 301.861 205.799 299.418 C 205.74 296.968 210.773 290.525 214.229 290.051 C 217.685 289.569 224.659 290.505 226.571 289.544 C 228.483 288.586 231.127 284.536 231.164 282.869 C 231.201 281.205 226.835 277.664 226.835 277.664 C 226.835 277.664 225.229 274.847 223.005 274.907 C 220.781 274.975 217.722 277.68 215.728 277.417 C 216.235 279.538 220.629 281.858 222.493 281.805 C 224.353 281.761 226.331 280.101 226.331 280.101 C 226.331 280.101 227.984 280.798 228.844 282.157 C 229.444 283.1 228.328 285.368 226.529 286.324 C 224.723 287.288 216.438 285.55 213.192 286.255 C 209.95 286.956 200.091 295.968 200.453 299.745 C 200.81 303.534 210.499 312.416 214.146 313.169 C 211.591 318.322 213.863 331.04 212.739 331.905 C 211.606 332.771 207.435 330.448 206.472 332.669 C 205.505 334.889 211.313 345.978 210.391 347.407 C 209.469 348.828 209.552 352.118 209.552 352.118 L 218.947 352.26 C 218.902 349.373 216.421 347.431 216.421 347.431 L 215.226 341.616 C 215.226 341.616 222.261 338.108 224.561 334.597 C 225.189 336.392 228.229 339.682 229.55 340.16 C 230.872 340.639 226.868 340.991 227.457 342.797 C 228.042 344.611 242.553 350.225 242.768 351.261 C 241.031 353.859 242.202 355.666 242.202 355.666 L 250.536 356.066 C 249.664 350.277 245.419 348.336 245.419 348.336 L 238.734 340.676 C 238.734 340.676 245.598 333.192 246.418 325.446 C 250.716 331.216 260.294 332.401 260.294 332.401 C 260.294 332.401 252.667 349.637 252.157 350.774 C 251.655 351.907 253.089 356.122 253.089 356.122 L 262.193 356.324 C 261.691 354.137 257.088 350.872 257.088 350.872 L 270.167 332.471 L 273.393 332.492 C 273.393 332.492 276.606 347.879 275.91 349.305 C 275.211 350.73 275.225 354.844 275.225 354.844 L 284.561 354.824 C 284.401 351.821 281.561 349.871 281.561 349.871 L 282.16 332.55 C 282.16 332.55 287.241 334.338 290.069 332.608 C 288.98 335.713 288.158 343.03 288.682 344.584 C 289.206 346.139 291.171 347.202 292.737 347.014 C 294.296 346.822 303.735 337.04 305.589 333.925 C 306.189 332.918 306.583 331.185 306.773 329.15 C 306.178 329.184 305.576 329.237 304.996 329.322 C 303.774 329.478 302.744 329.585 301.967 329.411 Z " fill="rgb(255,255,255)"/><path d=" M 312.91 324.01 C 310.069 321.947 306.391 320.455 302.422 321.004 C 300.401 321.275 300.605 327.737 302.265 328.109 C 303.925 328.482 307.178 327.101 310.044 328.172 C 312.903 329.232 316.804 333.876 316.836 332.436 C 316.864 330.999 315.75 326.08 312.91 324.01 Z " fill="rgb(255,255,255)"/></g></g></g><g><g><g><path d=" M 337.085 324.061 C 338.738 323.101 338.454 320.327 337.7 318.249 C 336.829 315.839 335.45 314.604 333.902 314.857 C 332.517 315.1 331.258 315.559 330.11 316.138 C 329.981 314.747 329.974 313.45 330.16 312.381 C 330.788 308.746 333.708 308.189 335.713 303.559 C 340.454 292.588 347.22 275.669 355.268 273.357 C 366.696 270.068 410.364 275.059 412.529 275.17 C 414.691 275.283 420.504 268.945 419.824 266.599 C 419.145 264.244 412.411 259.608 408.973 260.192 C 405.532 260.769 399.159 263.754 397.047 263.411 C 394.936 263.071 391.198 260 390.663 258.421 C 390.129 256.846 393.231 252.157 393.231 252.157 C 393.231 252.157 393.918 248.989 396.057 248.379 C 398.199 247.776 401.93 249.439 403.753 248.59 C 403.905 250.765 400.41 254.296 398.615 254.806 C 396.827 255.321 394.443 254.332 394.443 254.332 C 394.443 254.332 393.076 255.492 392.662 257.046 C 392.373 258.126 394.118 259.955 396.121 260.327 C 398.133 260.705 405.515 256.561 408.823 256.26 C 412.126 255.956 424.234 261.595 425.023 265.306 C 425.818 269.028 419.24 280.408 415.987 282.22 C 419.971 286.37 421.619 299.183 422.951 299.671 C 424.291 300.157 427.573 296.69 429.158 298.52 C 430.747 300.348 428.532 312.668 429.841 313.755 C 431.147 314.833 432.054 317.997 432.054 317.997 L 423.135 320.951 C 422.312 318.183 424.096 315.587 424.096 315.587 L 423.491 309.681 C 423.491 309.681 415.729 308.445 412.481 305.786 C 412.42 307.687 410.507 311.737 409.39 312.59 C 408.273 313.443 412.198 312.578 412.178 314.477 C 412.165 316.383 400.006 326.092 400.112 327.145 C 402.548 329.102 401.973 331.177 401.973 331.177 L 394.143 334.058 C 393.238 328.275 396.705 325.149 396.705 325.149 L 400.785 315.837 C 400.785 315.837 391.991 310.757 388.885 303.613 C 386.516 310.407 377.735 314.411 377.735 314.411 C 377.735 314.411 390.182 328.565 391.009 329.497 C 391.828 330.427 391.724 334.878 391.724 334.878 L 383.1 337.802 C 382.923 335.565 386.334 331.069 386.334 331.069 L 368.338 317.44 L 365.267 318.428 C 365.267 318.428 366.818 334.07 367.909 335.221 C 369.004 336.371 370.224 340.3 370.224 340.3 L 361.313 343.082 C 360.564 340.169 362.688 337.457 362.688 337.457 L 356.92 321.113 C 356.92 321.113 352.61 324.344 349.394 323.541 C 351.363 326.176 354.343 332.91 354.309 334.55 C 354.276 336.19 352.721 337.793 351.17 338.084 C 349.625 338.369 337.687 331.869 334.983 329.454 C 334.109 328.674 333.213 327.139 332.422 325.254 C 332.999 325.108 333.59 324.978 334.169 324.885 C 335.381 324.668 336.395 324.46 337.085 324.061 Z " fill="rgb(255,255,255)"/><path d=" M 325.025 322.191 C 327.116 319.371 330.177 316.845 334.128 316.178 C 336.138 315.831 337.881 322.055 336.41 322.909 C 334.938 323.762 331.421 323.421 329.008 325.303 C 326.598 327.171 324.271 332.772 323.808 331.407 C 323.35 330.045 322.937 325.019 325.025 322.191 Z " fill="rgb(255,255,255)"/></g></g></g></g><g><g><path d=" M 941.201 449.498 C 941.429 450.987 931.586 453.736 919.178 455.636 L 781.743 476.688 C 770.52 478.407 760.9 478.866 759.253 477.746 L 731.742 460.477 L 690.967 521.999 C 689.985 523.451 681.577 525.781 670.818 527.527 C 670.186 527.629 669.658 527.718 668.985 527.821 C 658.964 529.356 650.008 529.916 647.176 529.145 L 569.278 509.044 L 499.803 536.54 C 495.637 538.192 486.694 540.179 477.488 541.417 C 468.184 542.705 460.514 543.054 458.049 542.322 L 420.42 530.826 L 251.384 556.718 C 239.04 558.61 228.745 558.943 228.517 557.456 C 228.288 555.963 238.213 553.206 250.557 551.315 L 437.079 522.744 C 447.365 521.169 456.53 520.629 459.181 521.454 L 486.05 529.661 L 554.407 502.622 C 558.485 500.988 567.23 499.042 576.328 497.796 C 585.453 496.518 593.198 496.125 595.948 496.788 L 656.697 512.469 L 703.449 442.061 C 704.435 440.527 713.667 438.063 725.054 436.297 C 737.698 434.492 746.169 434.075 747.946 435.185 L 800.485 468.287 L 918.39 450.227 C 930.759 448.333 940.974 448.011 941.201 449.498 Z  M 1059.534 428.608 L 988.546 439.482 C 976.21 441.371 966.287 444.135 966.514 445.622 C 966.742 447.11 977.037 446.775 989.373 444.885 L 1060.362 434.011 C 1072.674 432.126 1082.621 429.36 1082.393 427.872 C 1082.165 426.384 1071.846 426.722 1059.534 428.608 Z " fill="rgb(255,255,255)"/></g></g><g><g><path d=" M 335.194 346.945 C 335.385 348.192 345.57 347.671 357.978 345.771 L 495.413 324.719 C 506.636 323 515.977 320.719 517.247 319.375 L 538.85 298.075 L 594.826 335.793 C 596.166 336.678 604.86 336.219 615.646 334.648 C 616.28 334.556 616.81 334.481 617.482 334.378 C 627.503 332.843 636.237 330.826 638.738 329.434 L 707.826 292.024 L 781.936 294.787 C 786.381 294.955 795.494 294.076 804.652 292.529 C 813.919 290.995 821.361 289.163 823.521 287.903 L 856.403 268.411 L 1025.439 242.519 C 1037.784 240.629 1047.737 238.063 1047.546 236.818 C 1047.355 235.567 1037.09 236.104 1024.746 237.994 L 838.224 266.565 C 827.938 268.141 819.011 270.231 816.698 271.617 L 793.218 285.534 L 720.305 282.827 C 715.949 282.649 707.037 283.505 697.98 285.017 C 688.887 286.51 681.361 288.327 678.909 289.611 L 625.031 318.789 L 560.886 275.647 C 559.52 274.698 550 275.277 538.606 277.004 C 525.998 279.046 517.77 281.044 516.373 282.415 L 475.15 323.191 L 357.245 341.252 C 344.877 343.147 335.004 345.7 335.194 346.945 Z  M 216.101 362.872 L 287.09 351.999 C 299.426 350.109 309.691 349.578 309.881 350.823 C 310.072 352.07 300.119 354.634 287.783 356.524 L 216.794 367.398 C 204.482 369.283 194.194 369.82 194.003 368.573 C 193.812 367.327 203.789 364.758 216.101 362.872 Z " fill="rgb(255,255,255)"/></g></g><g transform="matrix(1.59,-0.244,0.244,1.59,198.662,350.254)"><text transform="matrix(1,0,0,1,36.825,93.024)" style="font-family:'Amita';font-weight:400;font-size:72px;font-style:normal;font-variant-ligatures:none;letter-spacing:37;fill:#ffffff;stroke:none;">Inpulsa</text></g><g><path d=" M 951.902 482.013 C 920.621 627.614 812.894 715.415 645.133 715.415 C 514.628 715.415 435.139 658.947 376.369 560.837" fill="none" vector-effect="non-scaling-stroke" stroke-width="5" stroke="rgb(255,255,255)" stroke-linejoin="miter" stroke-linecap="square" stroke-miterlimit="3"/><path d=" M 378.448 247.694 C 425.65 148.158 532.904 90.856 651.933 90.721 C 756.674 90.602 848.884 143.905 901.861 224.433" fill="none" vector-effect="non-scaling-stroke" stroke-width="5" stroke="rgb(255,255,255)" stroke-linejoin="miter" stroke-linecap="square" stroke-miterlimit="3"/><path d=" M 1016.748 474.144 C 987.293 656.564 832.017 774.477 645.133 774.477 C 498.962 774.477 372.127 689.242 309.68 564.838" fill="none" vector-effect="non-scaling-stroke" stroke-width="8" stroke="rgb(255,255,255)" stroke-linejoin="miter" stroke-linecap="square" stroke-miterlimit="3"/><path d=" M 302.324 257.224 C 361.092 121.666 493.109 27.101 646.389 27.101 C 780.443 27.101 898.233 99.43 964.974 208.262" fill="none" vector-effect="non-scaling-stroke" stroke-width="6" stroke="rgb(255,255,255)" stroke-linejoin="miter" stroke-linecap="square" stroke-miterlimit="3"/><g transform="matrix(1,0,0,1,376.369,482.01)"><text transform="matrix(-0.246,0.969,-0.969,-0.246,593.159,12.708)" style="font-family:'Open Sans';font-weight:400;font-size:15px;font-style:normal;font-variant-ligatures:none;letter-spacing:21;fill:#ffffff;stroke:none;">.</text><text transform="matrix(-0.288,0.957,-0.957,-0.288,586.589,36.816)" style="font-family:'Open Sans';font-weight:400;font-size:15px;font-style:normal;font-variant-ligatures:none;letter-spacing:21;fill:#ffffff;stroke:none;">.</text><text transform="matrix(-0.363,0.932,-0.932,-0.363,578.371,60.412)" style="font-family:'Open Sans';font-weight:400;font-size:15px;font-style:normal;font-variant-ligatures:none;letter-spacing:21;fill:#ffffff;stroke:none;">.</text><text transform="matrix(-0.435,0.9,-0.9,-0.435,568.413,83.324)" style="font-family:'Open Sans';font-weight:400;font-size:15px;font-style:normal;font-variant-ligatures:none;letter-spacing:21;fill:#ffffff;stroke:none;">.</text><text transform="matrix(-0.504,0.864,-0.864,-0.504,556.761,105.424)" style="font-family:'Open Sans';font-weight:400;font-size:15px;font-style:normal;font-variant-ligatures:none;letter-spacing:21;fill:#ffffff;stroke:none;">.</text><text transform="matrix(-0.588,0.809,-0.809,-0.588,543.294,126.466)" style="font-family:'Open Sans';font-weight:400;font-size:15px;font-style:normal;font-variant-ligatures:none;letter-spacing:21;fill:#ffffff;stroke:none;">.</text><text transform="matrix(-0.654,0.756,-0.756,-0.654,528.086,146.289)" style="font-family:'Open Sans';font-weight:400;font-size:15px;font-style:normal;font-variant-ligatures:none;letter-spacing:21;fill:#ffffff;stroke:none;">.</text><text transform="matrix(-0.696,0.718,-0.718,-0.696,511.151,164.658)" style="font-family:'Open Sans';font-weight:400;font-size:15px;font-style:normal;font-variant-ligatures:none;letter-spacing:21;fill:#ffffff;stroke:none;">.</text><text transform="matrix(-0.76,0.649,-0.649,-0.76,492.632,181.426)" style="font-family:'Open Sans';font-weight:400;font-size:15px;font-style:normal;font-variant-ligatures:none;letter-spacing:21;fill:#ffffff;stroke:none;">.</text><text transform="matrix(-0.819,0.574,-0.574,-0.819,472.686,196.466)" style="font-family:'Open Sans';font-weight:400;font-size:15px;font-style:normal;font-variant-ligatures:none;letter-spacing:21;fill:#ffffff;stroke:none;">.</text><text transform="matrix(-0.869,0.496,-0.496,-0.869,451.509,209.713)" style="font-family:'Open Sans';font-weight:400;font-size:15px;font-style:normal;font-variant-ligatures:none;letter-spacing:21;fill:#ffffff;stroke:none;">.</text><text transform="matrix(-0.91,0.415,-0.415,-0.91,429.28,221.108)" style="font-family:'Open Sans';font-weight:400;font-size:15px;font-style:normal;font-variant-ligatures:none;letter-spacing:21;fill:#ffffff;stroke:none;">.</text><text transform="matrix(-0.943,0.334,-0.334,-0.943,406.205,230.681)" style="font-family:'Open Sans';font-weight:400;font-size:15px;font-style:normal;font-variant-ligatures:none;letter-spacing:21;fill:#ffffff;stroke:none;">.</text><text transform="matrix(-0.967,0.254,-0.254,-0.967,382.468,238.482)" style="font-family:'Open Sans';font-weight:400;font-size:15px;font-style:normal;font-variant-ligatures:none;letter-spacing:21;fill:#ffffff;stroke:none;">.</text><text transform="matrix(-0.978,0.209,-0.209,-0.978,358.207,244.465)" style="font-family:'Open Sans';font-weight:400;font-size:15px;font-style:normal;font-variant-ligatures:none;letter-spacing:21;fill:#ffffff;stroke:none;">.</text><text transform="matrix(-0.989,0.145,-0.145,-0.989,333.61,248.858)" style="font-family:'Open Sans';font-weight:400;font-size:15px;font-style:normal;font-variant-ligatures:none;letter-spacing:21;fill:#ffffff;stroke:none;">.</text><text transform="matrix(-0.997,0.073,-0.073,-0.997,308.79,251.752)" style="font-family:'Open Sans';font-weight:400;font-size:15px;font-style:normal;font-variant-ligatures:none;letter-spacing:21;fill:#ffffff;stroke:none;">.</text><text transform="matrix(-0.999,0.033,-0.033,-0.999,283.839,253.128)" style="font-family:'Open Sans';font-weight:400;font-size:15px;font-style:normal;font-variant-ligatures:none;letter-spacing:21;fill:#ffffff;stroke:none;">.</text><text transform="matrix(-1,-0.028,0.028,-1,258.853,253.273)" style="font-family:'Open Sans';font-weight:400;font-size:15px;font-style:normal;font-variant-ligatures:none;letter-spacing:21;fill:#ffffff;stroke:none;">.</text><text transform="matrix(-0.996,-0.086,0.086,-0.996,233.898,252.013)" style="font-family:'Open Sans';font-weight:400;font-size:15px;font-style:normal;font-variant-ligatures:none;letter-spacing:21;fill:#ffffff;stroke:none;">.</text><text transform="matrix(-0.989,-0.148,0.148,-0.989,209.071,249.204)" style="font-family:'Open Sans';font-weight:400;font-size:15px;font-style:normal;font-variant-ligatures:none;letter-spacing:21;fill:#ffffff;stroke:none;">.</text><text transform="matrix(-0.977,-0.213,0.213,-0.977,184.505,244.655)" style="font-family:'Open Sans';font-weight:400;font-size:15px;font-style:normal;font-variant-ligatures:none;letter-spacing:21;fill:#ffffff;stroke:none;">.</text><text transform="matrix(-0.96,-0.281,0.281,-0.96,160.345,238.29)" style="font-family:'Open Sans';font-weight:400;font-size:15px;font-style:normal;font-variant-ligatures:none;letter-spacing:21;fill:#ffffff;stroke:none;">.</text><text transform="matrix(-0.926,-0.378,0.378,-0.926,136.813,229.898)" style="font-family:'Open Sans';font-weight:400;font-size:15px;font-style:normal;font-variant-ligatures:none;letter-spacing:21;fill:#ffffff;stroke:none;">.</text><text transform="matrix(-0.892,-0.453,0.453,-0.892,114.112,219.47)" style="font-family:'Open Sans';font-weight:400;font-size:15px;font-style:normal;font-variant-ligatures:none;letter-spacing:21;fill:#ffffff;stroke:none;">.</text><text transform="matrix(-0.836,-0.549,0.549,-0.836,92.409,207.097)" style="font-family:'Open Sans';font-weight:400;font-size:15px;font-style:normal;font-variant-ligatures:none;letter-spacing:21;fill:#ffffff;stroke:none;">.</text></g><g transform="matrix(1,-0.028,0.028,1,374.303,98.287)"><text transform="matrix(0.756,-0.654,0.654,0.756,49.74,58.405)" style="font-family:'Habibi';font-weight:400;font-size:15px;font-style:normal;font-variant-ligatures:none;letter-spacing:21;fill:#ffffff;stroke:none;">&lt;</text><text transform="matrix(0.823,-0.569,0.569,0.823,73.296,40.222)" style="font-family:'Habibi';font-weight:400;font-size:17px;font-style:normal;font-variant-ligatures:none;letter-spacing:20;fill:#ffffff;stroke:none;">h</text><text transform="matrix(0.88,-0.474,0.474,0.88,98.671,24.378)" style="font-family:'Habibi';font-weight:400;font-size:17px;font-style:normal;font-variant-ligatures:none;letter-spacing:20;fill:#ffffff;stroke:none;">t</text><text transform="matrix(0.921,-0.389,0.389,0.921,121.584,12.793)" style="font-family:'Habibi';font-weight:400;font-size:17px;font-style:normal;font-variant-ligatures:none;letter-spacing:20;fill:#ffffff;stroke:none;">m</text><text transform="matrix(0.954,-0.299,0.299,0.954,154.767,-0.031)" style="font-family:'Habibi';font-weight:400;font-size:17px;font-style:normal;font-variant-ligatures:none;letter-spacing:20;fill:#ffffff;stroke:none;">l</text><text transform="matrix(0.97,-0.243,0.243,0.97,178.066,-6.766)" style="font-family:'Habibi';font-weight:400;font-size:17px;font-style:normal;font-variant-ligatures:none;letter-spacing:20;fill:#ffffff;stroke:none;">.</text><text transform="matrix(0.984,-0.178,0.178,0.984,201.773,-11.843)" style="font-family:'Habibi';font-weight:400;font-size:17px;font-style:normal;font-variant-ligatures:none;letter-spacing:20;fill:#ffffff;stroke:none;">c</text><text transform="matrix(0.996,-0.088,0.088,0.996,229.97,-15.81)" style="font-family:'Habibi';font-weight:400;font-size:17px;font-style:normal;font-variant-ligatures:none;letter-spacing:20;fill:#ffffff;stroke:none;">s</text><text transform="matrix(1,-0.029,0.029,1,256.989,-17.525)" style="font-family:'Habibi';font-weight:400;font-size:17px;font-style:normal;font-variant-ligatures:none;letter-spacing:20;fill:#ffffff;stroke:none;">s</text><text transform="matrix(0.998,0.058,-0.058,0.998,284.062,-17.36)" style="font-family:'Habibi';font-weight:400;font-size:17px;font-style:normal;font-variant-ligatures:none;letter-spacing:20;fill:#ffffff;stroke:none;">.</text><text transform="matrix(0.993,0.121,-0.121,0.993,308.222,-15.343)" style="font-family:'Habibi';font-weight:400;font-size:17px;font-style:normal;font-variant-ligatures:none;letter-spacing:20;fill:#ffffff;stroke:none;">j</text><text transform="matrix(0.977,0.214,-0.214,0.977,332.183,-11.591)" style="font-family:'Habibi';font-weight:400;font-size:17px;font-style:normal;font-variant-ligatures:none;letter-spacing:20;fill:#ffffff;stroke:none;">s</text><text transform="matrix(0.96,0.281,-0.281,0.96,358.483,-5.165)" style="font-family:'Habibi';font-weight:400;font-size:17px;font-style:normal;font-variant-ligatures:none;letter-spacing:20;fill:#ffffff;stroke:none;">.</text><text transform="matrix(0.931,0.364,-0.364,0.931,381.503,2.442)" style="font-family:'Habibi';font-weight:400;font-size:17px;font-style:normal;font-variant-ligatures:none;letter-spacing:20;fill:#ffffff;stroke:none;">p</text><text transform="matrix(0.893,0.449,-0.449,0.893,408.978,14.238)" style="font-family:'Habibi';font-weight:400;font-size:17px;font-style:normal;font-variant-ligatures:none;letter-spacing:20;fill:#ffffff;stroke:none;">h</text><text transform="matrix(0.848,0.53,-0.53,0.848,435.228,28.588)" style="font-family:'Habibi';font-weight:400;font-size:17px;font-style:normal;font-variant-ligatures:none;letter-spacing:20;fill:#ffffff;stroke:none;">p</text><text transform="matrix(0.796,0.605,-0.605,0.796,459.988,45.349)" style="font-family:'Habibi';font-weight:400;font-size:17px;font-style:normal;font-variant-ligatures:none;letter-spacing:20;fill:#ffffff;stroke:none;">&gt;</text></g></g><g transform="matrix(1.257,0,0,1.257,474.4,565.989)"><text transform="matrix(1,0,0,1,31.624,43.945)" style="font-family:'Habibi';font-weight:400;font-size:45px;font-style:normal;font-variant-ligatures:none;letter-spacing:29;fill:#ffffff;stroke:none;">TEAM</text></g><g transform="matrix(1.257,0,0,1.257,408.555,182.24)"><text transform="matrix(1,0,0,1,97.895,24.414)" style="font-family:'Habibi';font-weight:400;font-size:25px;font-style:normal;font-variant-ligatures:none;letter-spacing:10;fill:#ffffff;stroke:none;">ACS|P23</text></g><g transform="matrix(1.257,0,0,1.257,561.235,199.398)"><text transform="matrix(1,0,0,1,35.684,34.829)" style="font-family:'Lateef';font-weight:400;font-size:17px;font-style:normal;font-variant-ligatures:none;letter-spacing:6;fill:#ffffff;stroke:none;">2018</text></g></g></g></svg>